<svg xmlns="http://www.w3.org/2000/svg" xmlns:xlink="http://www.w3.org/1999/xlink" width="20" height="20" viewBox="0 0 32 28" fill="none"><defs><rect id="path_0" x="0" y="0" width="32" height="28" /></defs><g opacity="1" transform="translate(0 0)  rotate(0 16 14)"><mask id="bg-mask-0" fill="white"><use xlink:href="#path_0"></use></mask><g mask="url(#bg-mask-0)" ><path id="分组 1" fill-rule="evenodd" style="fill:#C4C4C4" transform="translate(2.483803968750144 1.2902052460938016)  rotate(0 13.99051440625 12.244050533203126)" opacity="1" d="M0 24.49L2 24.49C2 24.49 3.04 13.99 13.99 13.99C24.97 13.99 25.98 24.49 25.98 24.49L27.98 24.49C27.98 24.49 27.98 15.72 18.77 12.74C18.76 12.74 18.76 12.74 18.76 12.74C20.75 11.45 22.06 9.39 22.06 7.06C22.06 3.17 18.44 0 13.99 0C9.54 0 5.93 3.17 5.93 7.06C5.93 9.42 7.26 11.5 9.3 12.78C9.3 12.78 9.3 12.79 9.3 12.79C0 15.7 0 24.49 0 24.49Z M13.9951 12.369C17.3351 12.369 20.0551 9.97904 20.0551 7.05904C20.0551 4.12904 17.3351 1.74904 13.9951 1.74904C10.6451 1.74904 7.92512 4.12904 7.92512 7.05904C7.92512 9.97904 10.6451 12.369 13.9951 12.369Z " /></g></g></svg>