<?xml version="1.0" standalone="no"?><!DOCTYPE svg PUBLIC "-//W3C//DTD SVG 1.1//EN" "http://www.w3.org/Graphics/SVG/1.1/DTD/svg11.dtd"><svg t="1653359619404" class="icon" viewBox="0 0 1024 1024" version="1.1" xmlns="http://www.w3.org/2000/svg" p-id="940" xmlns:xlink="http://www.w3.org/1999/xlink" width="200" height="200"><defs><style type="text/css">@font-face { font-family: feedback-iconfont; src: url("//at.alicdn.com/t/font_1031158_u69w8yhxdu.woff2?t=1630033759944") format("woff2"), url("//at.alicdn.com/t/font_1031158_u69w8yhxdu.woff?t=1630033759944") format("woff"), url("//at.alicdn.com/t/font_1031158_u69w8yhxdu.ttf?t=1630033759944") format("truetype"); }
</style></defs><path d="M586.854 750.985c-18.04 9.557-30.242 19.694-37.154 27.733a34.133 34.133 0 0 0-5.58 35.464c2.406 5.735 6.929 14.234 13.96 24.576 11.23 16.47 25.737 32.768 43.93 47.89 31.727 26.367 71.338 46.353 119.296 57.514 67.925 15.804 127.249 8.38 176.128-13.96 18.944-8.636 32.392-17.63 40.243-24.474a34.133 34.133 0 0 0 10.632-34.27c-1.74-6.758-5.563-16.384-12.288-27.819-10.427-17.817-25.275-35.328-45.175-51.336-28.98-23.33-66.39-41.643-112.981-53.504l-8.312-2.014c-75.793-17.647-136.738-10.103-182.699 14.2z m167.237 52.292c40.67 9.455 71.44 24.08 93.952 42.206l4.283 3.584c5.547 4.795 10.326 9.66 14.439 14.54l3.26 4.045-0.94 0.461c-35.668 16.282-79.7 21.794-132.317 9.557-37.461-8.72-67.465-23.859-91.136-43.52l-4.779-4.096a170.786 170.786 0 0 1-16.537-16.896l-2.697-3.293 4.318-2.031c29.525-13.21 69.342-17.17 121.549-6.042l6.605 1.485z" p-id="941" fill="#2c2c2c"></path><path d="M512.58 37.94c72.056-13.245 129.775 8.31 171.554 51.882 11.264 11.742 20.02 23.484 26.573 34.201l1.792 3.021 63.352 7.987c39.611 4.984 39.509 61.475 1.587 67.516l-8.414 0.922c-4.71 0.512-9.984 1.194-15.684 1.997-16.214 2.32-32.376 5.324-47.24 9.045-26.71 6.707-45.432 15.258-49.34 20.634-10.957 15.018-10.24 23.432 6.997 48.128l4.659 6.536c65.57 90.368 81.271 156.348 38.4 251.887-49.05 109.346-127.198 165.632-233.42 195.106a505.993 505.993 0 0 1-197.36 14.677l-8.09-1.075-2.303-0.341-133.206 223.164a34.133 34.133 0 0 1-44.339 13.141l-2.457-1.331a34.133 34.133 0 0 1-13.159-44.34l1.331-2.457 145.323-243.49a34.133 34.133 0 0 1 34.799-16.213l7.287 1.57c3.84 0.768 9.319 1.706 16.23 2.696 53.112 7.492 114.62 5.735 177.665-11.776 88.269-24.49 149.674-68.727 189.406-157.286 30.43-67.823 21.708-109.261-27.597-178.586l-3.772-5.24c-37.086-51.097-45.227-88.831-11.588-134.997 10.684-14.643 27.05-25.531 48.623-34.235l2.15-0.854-1.928-3.072a133.65 133.65 0 0 0-11.196-14.899l-4.37-4.779c-26.623-27.767-61.695-40.857-109.943-32-20.65 3.79-38.57 13.517-53.964 27.614a132.648 132.648 0 0 0-18.518 20.941c-2.304 3.243-3.857 5.7-5.017 7.748l-0.802 1.451L97.877 770.27a34.133 34.133 0 0 1-60.45-31.625l1.246-2.372 348.058-606.19c6.673-12.835 19.114-30.345 38.127-47.753 24.32-22.255 53.538-38.11 87.722-44.39z" p-id="942" fill="#2c2c2c"></path><path d="M384.887 404.002l-1.143 2.116L274.569 588.8c-13.04 21.845 1.536 49.408 26.316 51.507l2.902 0.12c10.922 0.085 27.34-0.922 47.48-3.977 32.511-4.932 64.972-13.943 95.624-28.194 45.482-21.163 83.08-52.122 109.295-94.362 24.66-39.663 27.119-78.592 8.72-112.076-38.809-70.622-141.192-66.953-180.053 2.167z m120.201 30.72c6.042 10.974 5.24 23.689-6.878 43.179-18.705 30.14-45.977 52.6-80.077 68.454l-8.158 3.618c-10.973 4.625-22.323 8.482-33.86 11.623l-6.792 1.74 73.25-122.572 1.075-1.946c12.407-24.217 46.507-26.658 60.075-6.366l1.365 2.253z m280.593 153.515c-40.158 12.51-71.953 31.044-95.983 54.22-17.596 16.948-30.054 35.414-38.16 54.119-5.155 11.913-7.75 21.811-8.654 28.74a34.133 34.133 0 0 0 11.862 30.55c6.895 5.802 18.38 13.363 34.218 20.65 45.056 20.668 98.629 26.215 157.816 7.783 39.065-12.186 70.775-31.966 95.522-57.259a202.803 202.803 0 0 0 36.028-49.92c5.444-10.684 8.704-19.456 10.325-25.361a34.133 34.133 0 0 0-7.595-31.88c-6.212-6.861-16.776-15.497-31.966-23.655-42.58-22.87-97.604-28.501-163.413-7.987z m127.198 66.15l-0.82 1.383a137.626 137.626 0 0 1-18.534 23.517c-16.998 17.357-38.98 31.079-67.055 39.834l-5.7 1.673c-37.82 10.547-70.912 7.39-99.123-4.489l-3.072-1.331 2.014-3.345c4.25-6.742 9.677-13.483 16.486-20.036 16.265-15.668 38.759-28.792 68.915-38.196 44.305-13.807 78.388-11.776 104.26-0.239l2.629 1.23z" p-id="943" fill="#2c2c2c"></path></svg>