<?xml version="1.0" standalone="no"?><!DOCTYPE svg PUBLIC "-//W3C//DTD SVG 1.1//EN" "http://www.w3.org/Graphics/SVG/1.1/DTD/svg11.dtd"><svg t="1653698457122" class="icon" viewBox="0 0 1024 1024" version="1.1" xmlns="http://www.w3.org/2000/svg" p-id="4451" xmlns:xlink="http://www.w3.org/1999/xlink" width="200" height="200"><defs><style type="text/css">@font-face { font-family: feedback-iconfont; src: url("//at.alicdn.com/t/font_1031158_u69w8yhxdu.woff2?t=1630033759944") format("woff2"), url("//at.alicdn.com/t/font_1031158_u69w8yhxdu.woff?t=1630033759944") format("woff"), url("//at.alicdn.com/t/font_1031158_u69w8yhxdu.ttf?t=1630033759944") format("truetype"); }
</style></defs><path d="M234.666667 320h128v42.666667a21.333333 21.333333 0 0 0 42.666666 0v-42.666667h467.541334a21.333333 21.333333 0 0 0 0-42.666667H405.333333v-42.666666a21.333333 21.333333 0 0 0-42.666666 0v42.666666h-128a21.333333 21.333333 0 0 0 0 42.666667" p-id="4452"></path><path d="M872.874667 488.917333H746.666667v-44.458666a21.333333 21.333333 0 0 0-42.666667 0v44.458666h-469.333333a21.333333 21.333333 0 0 0 0 42.666667h469.333333v40.832a21.333333 21.333333 0 1 0 42.666667 0v-40.832h126.208a21.333333 21.333333 0 0 0 0-42.666667M872.874667 702.250667H405.333333v-42.666667a21.333333 21.333333 0 0 0-42.666666 0v42.666667h-128a21.333333 21.333333 0 0 0 0 42.666666h128v42.666667a21.333333 21.333333 0 0 0 42.666666 0v-42.666667h467.541334a21.333333 21.333333 0 0 0 0-42.666666" p-id="4453"></path></svg>